Coordinates
version=1
nRows=11
nColumns=26
inDegrees=yes

Units are S.I. units (second, meters, Newtons, ...)
Angles are in degrees.

endheader
time	pelvis_tilt	pelvis_list	pelvis_rotation	pelvis_tx	pelvis_ty	pelvis_tz	hip_flexion_r	hip_adduction_r	hip_rotation_r	knee_angle_r	knee_angle_r_beta	ankle_angle_r	subtalar_angle_r	mtp_angle_r	hip_flexion_l	hip_adduction_l	hip_rotation_l	knee_angle_l	knee_angle_l_beta	ankle_angle_l	subtalar_angle_l	mtp_angle_l	lumbar_extension	lumbar_bending	lumbar_rotation
      0.55000000	      2.73762897	      1.54473415	      4.66414998	      0.64947119	      0.99351177	      0.16745602	     20.36022689	     -2.75622195	    -10.58887497	      8.65323323	      8.65323323	     -1.13361471	      0.00000000	      0.00000000	    -13.10643197	      1.50912749	     -6.87367546	     13.22716754	     13.22716754	     13.74787342	      0.00000000	      0.00000000	    -15.39645994	     -2.43728654	     -3.42802579
      0.55833333	      2.98775208	      1.42846144	      4.97873273	      0.65965926	      0.99291215	      0.16807456	     19.75198174	     -2.43767813	    -10.38090736	      9.30834254	      9.30834254	     -0.99881370	      0.00000000	      0.00000000	    -13.65486924	      1.09399815	     -6.86839029	     13.86354201	     13.86354201	     13.78874744	      0.00000000	      0.00000000	    -15.47270624	     -2.15520235	     -3.65537618
      0.56666667	      3.33880826	      1.33384787	      5.30122962	      0.67008767	      0.99259203	      0.16874953	     18.88860693	     -2.08446643	    -10.09354012	      9.53443879	      9.53443879	     -1.21371041	      0.00000000	      0.00000000	    -14.26574003	      0.67507561	     -6.87732058	     14.59227912	     14.59227912	     13.75522955	      0.00000000	      0.00000000	    -15.63873400	     -1.88854224	     -3.84731940
      0.57500000	      3.66406036	      1.16184134	      5.66836823	      0.68059449	      0.99228380	      0.16924871	     17.92928200	     -1.65340253	     -9.78645356	      9.31502037	      9.31502037	     -2.12669589	      0.00000000	      0.00000000	    -14.79212087	      0.13032065	     -6.81797166	     15.42639484	     15.42639484	     13.72322021	      0.00000000	      0.00000000	    -15.75176729	     -1.49556245	     -4.00600587
      0.58333333	      4.01504247	      1.10612197	      6.00004581	      0.69112840	      0.99225954	      0.16977719	     16.86233555	     -1.33785131	     -9.39315577	      8.85227188	      8.85227188	     -3.62146359	      0.00000000	      0.00000000	    -15.21388634	     -0.30104168	     -6.50488745	     16.47085607	     16.47085607	     13.54419847	      0.00000000	      0.00000000	    -15.90307495	     -1.23425213	     -4.12203737
      0.59166667	      4.34434043	      1.06009008	      6.27158113	      0.70171179	      0.99218401	      0.17040353	     15.81151000	     -1.06143979	     -9.00057623	      8.36770529	      8.36770529	     -5.15621272	      0.00000000	      0.00000000	    -15.61543522	     -0.68825945	     -6.44009743	     17.49882016	     17.49882016	     13.26683731	      0.00000000	      0.00000000	    -16.03575786	     -0.98337699	     -4.13322058
      0.60000000	      4.58932808	      1.07833744	      6.50570723	      0.71227377	      0.99192122	      0.17102249	     14.89693529	     -0.90127084	     -8.65879176	      8.10230212	      8.10230212	     -6.20221929	      0.00000000	      0.00000000	    -15.84177344	     -1.00002119	     -6.24926283	     18.71147523	     18.71147523	     12.97633386	      0.00000000	      0.00000000	    -16.07945103	     -0.80959440	     -4.08767391
      0.60833333	      4.86324820	      1.13047241	      6.62036395	      0.72284416	      0.99183623	      0.17197908	     14.02441106	     -0.76111081	     -8.39348526	      8.06539762	      8.06539762	     -6.70040039	      0.00000000	      0.00000000	    -16.00645827	     -1.24509097	     -6.03378018	     20.08720219	     20.08720219	     12.61034423	      0.00000000	      0.00000000	    -16.18091308	     -0.70654261	     -3.90684495
      0.61666667	      5.02462647	      1.21783603	      6.65742588	      0.73307241	      0.99181192	      0.17281490	     13.47779989	     -0.73506809	     -8.20151622	      8.44554845	      8.44554845	     -6.96175263	      0.00000000	      0.00000000	    -15.84544928	     -1.44094436	     -5.91314478	     21.75103369	     21.75103369	     12.06155212	      0.00000000	      0.00000000	    -16.19300735	     -0.64113285	     -3.60136536
      0.62500000	      5.23046303	      1.09507027	      6.68490296	      0.74313387	      0.99211318	      0.17374228	     12.94105322	     -0.49636987	     -8.00406465	      8.92988636	      8.92988636	     -7.10433438	      0.00000000	      0.00000000	    -15.41373682	     -1.91592339	     -5.90088836	     23.92283167	     23.92283167	     11.47734239	      0.00000000	      0.00000000	    -16.27870161	     -0.32719335	     -3.25059327
      0.63333333	      5.54162436	      0.82251794	      6.61049623	      0.75319525	      0.99286735	      0.17468819	     12.32567706	     -0.08220492	     -7.73627441	      9.46299673	      9.46299673	     -7.05570069	      0.00000000	      0.00000000	    -14.94147991	     -2.54034808	     -5.83677700	     26.37295930	     26.37295930	     10.75402948	      0.00000000	      0.00000000	    -16.48406515	      0.16064846	     -2.73729215
